<svg version="1" xmlns="http://www.w3.org/2000/svg" width="933.333" height="933.333" viewBox="0 0 700 700"><path d="M82 116.1c-33.2 3.9-60.1 28.5-69.1 63.4-2.3 8.7-2.3 10.1-2.1 43 .7 73.1 2 119.6 3.7 127.5 6.5 30 28.6 55.8 55.8 65.1 8 2.7 20.9 4.9 29.3 4.9h4.1l.6 26.2c.4 14.5.7 32.5.7 40 0 17.1 1.3 26.7 5.2 38.7 7.6 22.8 23.6 41.1 44.8 51 16.3 7.6 4.9 7.2 188.5 6.9l164-.3 8.7-3.1c4.8-1.7 11.8-5 15.5-7.2 23.6-14 40.3-42.7 40.3-69.3V496h21.3c13.2-.1 24-.6 28.7-1.4 31.8-5.7 56.8-30 65-63.1l2.3-9-.7-69.5c-.4-38.2-1.1-74.4-1.7-80.3-3-32.9-24-62.8-52.6-74.7-14.3-6-14.4-6-88.8-6h-68l-1.3-6.7c-1.7-9.1-7.8-23.4-13.6-32.1-2.7-4-8.8-11-13.6-15.6-10-9.4-21.8-16.2-34.7-19.9l-7.8-2.2-158.5-.1c-87.2-.1-161.9.2-166 .7z"/></svg>